<svg width="51" height="51" viewBox="0 0 51 51" fill="none" xmlns="http://www.w3.org/2000/svg">
<g clip-path="url(#clip0_416_5643)">
<path d="M25.5 50.6367C39.3071 50.6367 50.5 39.4438 50.5 25.6367C50.5 11.8296 39.3071 0.636719 25.5 0.636719C11.6929 0.636719 0.5 11.8296 0.5 25.6367C0.5 39.4438 11.6929 50.6367 25.5 50.6367Z" fill="#F0F0F0"/>
<path d="M50.5 25.6367C50.5 39.4438 39.307 50.6367 25.5 50.6367C11.693 50.6367 0.5 39.4438 0.5 25.6367" fill="#496E2D"/>
<path d="M43.7628 18.0339C42.8688 15.4984 40.453 13.6807 37.6117 13.6807H32.0215C28.4196 13.6807 25.4997 16.6006 25.4997 20.2024C25.4997 21.3792 25.813 22.5102 26.3582 23.4633C24.2823 23.4463 22.3611 23.4776 21.1519 23.4633C21.1519 20.948 21.1519 17.7439 21.1519 17.0735L21.4087 16.8167C22.5616 15.6638 22.1771 13.7423 22.1771 13.7423C22.1771 13.7423 20.2559 13.358 19.1029 14.5109L17.7593 15.8546H16.2605C12.9588 15.8546 10.2823 18.5312 10.2823 21.8328H14.6302V26.7241C14.6302 27.4396 14.7744 28.1211 15.0351 28.7418L13.5432 29.985H11.3692V27.811H9.19531V32.1589H18.9779V36.5067H16.804V38.6807H21.1519V34.3328L23.1445 31.9415H27.8548L29.8475 34.3328V36.5067H27.6735V38.6807H36.3691V26.724C36.3691 24.9231 37.8291 23.4632 39.63 23.4632C39.6763 23.4632 39.7222 23.4648 39.7681 23.4667C39.678 23.1183 39.63 22.7529 39.63 22.3763C39.6302 20.0473 41.4615 18.1461 43.7628 18.0339V18.0339ZM32.0215 36.5066V31.9414H32.2026L34.1953 34.3327V36.5066H32.0215Z" fill="#D80027"/>
</g>
<defs>
<clipPath id="clip0_416_5643">
<rect width="50" height="50" fill="white" transform="translate(0.5 0.636719)"/>
</clipPath>
</defs>
</svg>
