<svg width="51" height="51" viewBox="0 0 51 51" fill="none" xmlns="http://www.w3.org/2000/svg">
<g clip-path="url(#clip0_413_4259)">
<path d="M0.5 25.6367C0.5 11.8297 11.693 0.636719 25.5 0.636719C39.307 0.636719 50.5 11.8297 50.5 25.6367L25.5 27.8106L0.5 25.6367Z" fill="#FFDA44"/>
<path d="M3.8457 38.1363C8.16846 45.6086 16.247 50.6363 25.5004 50.6363C34.7538 50.6363 42.8323 45.6086 47.1551 38.1363L25.5004 36.5059L3.8457 38.1363Z" fill="#D80027"/>
<path d="M47.1547 38.1367C49.2818 34.4596 50.5 30.1905 50.5 25.6367H0.5C0.5 30.1905 1.71816 34.4596 3.84531 38.1367H47.1547Z" fill="#0052B4"/>
<path d="M25.5003 34.3326C30.3027 34.3326 34.1959 30.4395 34.1959 25.637C34.1959 20.8346 30.3027 16.9414 25.5003 16.9414C20.6978 16.9414 16.8047 20.8346 16.8047 25.637C16.8047 30.4395 20.6978 34.3326 25.5003 34.3326Z" fill="#FFDA44"/>
<path d="M25.5002 31.0718C22.5034 31.0718 20.0654 28.6337 20.0654 25.637V22.3762C20.0654 19.3794 22.5035 16.9414 25.5002 16.9414C28.4969 16.9414 30.935 19.3795 30.935 22.3762V25.637C30.935 28.6338 28.497 31.0718 25.5002 31.0718Z" fill="#338AF3"/>
<path d="M34.1961 12.5929H27.6743C27.6743 11.3923 26.701 10.4189 25.5004 10.4189C24.2998 10.4189 23.3265 11.3923 23.3265 12.5929H16.8047C16.8047 13.7936 17.8505 14.7668 19.051 14.7668H18.9786C18.9786 15.9675 19.9519 16.9407 21.1525 16.9407C21.1525 18.1414 22.1258 19.1146 23.3265 19.1146H27.6743C28.875 19.1146 29.8482 18.1414 29.8482 16.9407C31.0489 16.9407 32.0222 15.9675 32.0222 14.7668H31.9498C33.1504 14.7668 34.1961 13.7935 34.1961 12.5929V12.5929Z" fill="black"/>
</g>
<defs>
<clipPath id="clip0_413_4259">
<rect width="50" height="50" fill="white" transform="translate(0.5 0.636719)"/>
</clipPath>
</defs>
</svg>
