<svg width="50" height="51" viewBox="0 0 50 51" fill="none" xmlns="http://www.w3.org/2000/svg">
<g clip-path="url(#clip0_175_341)">
<path d="M1.55498 17.0323C0.550098 19.7407 0 22.6699 0 25.7279C0 28.7859 0.550098 31.7153 1.55498 34.4235L25 36.5975L48.445 34.4235C49.4499 31.7153 50 28.7859 50 25.7279C50 22.6699 49.4499 19.7407 48.445 17.0323L25 14.8584L1.55498 17.0323Z" fill="#F0F0F0"/>
<path d="M24.9996 0.727539C14.2506 0.727539 5.08691 7.51191 1.55469 17.0319H48.4448C44.9123 7.51191 35.7488 0.727539 24.9996 0.727539Z" fill="#D80027"/>
<path d="M24.9996 50.7272C35.7488 50.7272 44.9123 43.9429 48.4447 34.4229H1.55469C5.08691 43.9429 14.2506 50.7272 24.9996 50.7272Z" fill="#6DA544"/>
</g>
<defs>
<clipPath id="clip0_175_341">
<rect width="50" height="50" fill="white" transform="translate(0 0.727539)"/>
</clipPath>
</defs>
</svg>
