<svg width="51" height="51" viewBox="0 0 51 51" fill="none" xmlns="http://www.w3.org/2000/svg">
<g clip-path="url(#clip0_415_5119)">
<path d="M25.5 50.6367C39.3071 50.6367 50.5 39.4438 50.5 25.6367C50.5 11.8296 39.3071 0.636719 25.5 0.636719C11.6929 0.636719 0.5 11.8296 0.5 25.6367C0.5 39.4438 11.6929 50.6367 25.5 50.6367Z" fill="#F0F0F0"/>
<path d="M25.4997 0.636719C14.7506 0.636719 5.58701 7.42109 2.05469 16.9411H48.9448C45.4124 7.42109 36.2488 0.636719 25.4997 0.636719V0.636719Z" fill="#A2001D"/>
<path d="M25.4997 50.6364C36.2488 50.6364 45.4124 43.8521 48.9447 34.332H2.05469C5.58701 43.8521 14.7506 50.6364 25.4997 50.6364Z" fill="#0052B4"/>
</g>
<defs>
<clipPath id="clip0_415_5119">
<rect width="50" height="50" fill="white" transform="translate(0.5 0.636719)"/>
</clipPath>
</defs>
</svg>
