<svg width="51" height="51" viewBox="0 0 51 51" fill="none" xmlns="http://www.w3.org/2000/svg">
<g clip-path="url(#clip0_422_8213)">
<path d="M50.5 25.6371C50.5 22.5791 49.9499 19.6497 48.945 16.9415L25.5 15.8545L2.05498 16.9414C1.0501 19.6497 0.5 22.5791 0.5 25.6371C0.5 28.6951 1.0501 31.6245 2.05498 34.3327L25.5 35.4197L48.945 34.3328C49.9499 31.6245 50.5 28.6951 50.5 25.6371Z" fill="#F0F0F0"/>
<path d="M25.4997 50.6364C36.2488 50.6364 45.4124 43.8521 48.9447 34.332H2.05469C5.58701 43.8521 14.7506 50.6364 25.4997 50.6364Z" fill="#0052B4"/>
<path d="M2.05469 16.9411H48.9448C45.4124 7.42109 36.2488 0.636719 25.4997 0.636719C14.7506 0.636719 5.58701 7.42109 2.05469 16.9411V16.9411Z" fill="#D80027"/>
<path d="M32.0217 18.0277H27.6738L28.3985 12.5929L31.297 10.4189L34.1955 12.5929V16.9407L32.0217 18.0277Z" fill="#338AF3"/>
<path d="M18.9785 18.0277H23.3264L22.6017 12.5929L19.7031 10.4189L16.8047 12.5929V16.9407L18.9785 18.0277Z" fill="#338AF3"/>
<path d="M28.3988 18.0277H22.6016V12.5929L25.5002 10.4189L28.3988 12.5929V18.0277Z" fill="#0052B4"/>
<path d="M16.8047 16.9414V28.8979C16.8047 31.7448 18.1799 34.2767 20.301 35.8639L21.8228 35.4831L23.7431 37.4149C24.3109 37.5319 24.8985 37.5936 25.5004 37.5936C26.099 37.5936 26.6837 37.5327 27.2485 37.4169L29.4406 35.5917L30.6996 35.8604C32.8198 34.2732 34.196 31.744 34.196 28.8979V16.9414H16.8047Z" fill="#F0F0F0"/>
<path d="M16.8047 16.9414H20.2829V20.4196H16.8047V16.9414Z" fill="#D80027"/>
<path d="M23.7607 16.9414H27.239V20.4196H23.7607V16.9414Z" fill="#D80027"/>
<path d="M30.7178 16.9414H34.196V20.4196H30.7178V16.9414Z" fill="#D80027"/>
<path d="M20.2832 20.4199H23.7614V23.8981H20.2832V20.4199Z" fill="#D80027"/>
<path d="M27.2393 20.4199H30.7175V23.8981H27.2393V20.4199Z" fill="#D80027"/>
<path d="M16.8047 23.8965H20.2829V27.3747H16.8047V23.8965Z" fill="#D80027"/>
<path d="M20.2832 27.375H23.7614V30.8532H20.2832V27.375Z" fill="#D80027"/>
<path d="M23.7607 23.8965H27.239V27.3747H23.7607V23.8965Z" fill="#D80027"/>
<path d="M30.7178 23.8965H34.196V27.3747H30.7178V23.8965Z" fill="#D80027"/>
<path d="M27.2393 27.375H30.7175V30.8532H27.2393V27.375Z" fill="#D80027"/>
<path d="M23.7607 30.8535H27.239V34.3317H23.7607V30.8535Z" fill="#D80027"/>
<path d="M20.2831 30.8535H17.0293C17.3277 32.1465 17.9145 33.3296 18.7189 34.3317H20.2831V30.8535Z" fill="#D80027"/>
<path d="M30.7178 34.3317H32.2818C33.0865 33.3296 33.673 32.1464 33.9715 30.8535H30.7178V34.3317Z" fill="#D80027"/>
<path d="M20.2832 34.332V35.8497C21.2948 36.6109 22.477 37.1567 23.7614 37.4187V34.332H20.2832Z" fill="#D80027"/>
<path d="M27.2393 34.332V37.4187C28.5237 37.1569 29.7059 36.6109 30.7175 35.8497V34.332H27.2393Z" fill="#D80027"/>
</g>
<defs>
<clipPath id="clip0_422_8213">
<rect width="50" height="50" fill="white" transform="translate(0.5 0.636719)"/>
</clipPath>
</defs>
</svg>
