<svg width="50" height="51" viewBox="0 0 50 51" fill="none" xmlns="http://www.w3.org/2000/svg">
<g clip-path="url(#clip0_418_1121)">
<path d="M25 50.4551C38.8071 50.4551 50 39.2622 50 25.4551C50 11.648 38.8071 0.455078 25 0.455078C11.1929 0.455078 0 11.648 0 25.4551C0 39.2622 11.1929 50.4551 25 50.4551Z" fill="#F0F0F0"/>
<path d="M25 18.9329H49.1388C48.5119 16.6073 47.5592 14.4158 46.3307 12.4111H25V18.9329Z" fill="#338AF3"/>
<path d="M9.4374 45.0198H40.5617C42.8433 43.2026 44.7999 40.9954 46.3302 38.498H3.66895C5.19932 40.9953 7.15596 43.2026 9.4374 45.0198V45.0198Z" fill="#338AF3"/>
<path d="M25 0.455078V5.88984H40.5622C36.2917 2.48867 30.8837 0.455078 25 0.455078V0.455078Z" fill="#338AF3"/>
<path d="M25 18.9329H49.1388C48.5119 16.6073 47.5592 14.4158 46.3307 12.4111H25V18.9329Z" fill="#338AF3"/>
<path d="M0 25.4551C0 27.7116 0.300781 29.8974 0.86123 31.9769H49.1389C49.6992 29.8974 50 27.7116 50 25.4551H0Z" fill="#338AF3"/>
<path d="M21.7393 15.0865L18.6859 16.5228L20.3118 19.4798L16.9964 18.8456L16.5763 22.1947L14.2671 19.7314L11.9577 22.1947L11.5377 18.8456L8.22227 19.4796L9.84805 16.5227L6.79492 15.0865L9.84814 13.6505L8.22227 10.6935L11.5376 11.3276L11.9578 7.97852L14.2671 10.4418L16.5764 7.97852L16.9964 11.3276L20.3119 10.6935L18.686 13.6506L21.7393 15.0865Z" fill="#FFDA44"/>
</g>
<defs>
<clipPath id="clip0_418_1121">
<rect width="50" height="50" fill="white" transform="translate(0 0.455078)"/>
</clipPath>
</defs>
</svg>
