<svg width="51" height="51" viewBox="0 0 51 51" fill="none" xmlns="http://www.w3.org/2000/svg">
<g clip-path="url(#clip0_422_9422)">
<path d="M0.5 25.6371C0.5 28.6951 1.0501 31.6244 2.05498 34.3327L25.5 36.5066L48.945 34.3327C49.9499 31.6244 50.5 28.6951 50.5 25.6371C50.5 22.5791 49.9499 19.6498 48.945 16.9415L25.5 14.7676L2.05498 16.9415C1.0501 19.6498 0.5 22.5791 0.5 25.6371H0.5Z" fill="#FFDA44"/>
<path d="M48.9447 16.9411C45.4124 7.42119 36.2488 0.636719 25.4997 0.636719C14.7506 0.636719 5.58701 7.42119 2.05469 16.9411H48.9447Z" fill="#D80027"/>
<path d="M2.05469 34.332C5.58701 43.852 14.7506 50.6364 25.4997 50.6364C36.2488 50.6364 45.4124 43.852 48.9447 34.332H2.05469Z" fill="#D80027"/>
</g>
<defs>
<clipPath id="clip0_422_9422">
<rect width="50" height="50" fill="white" transform="translate(0.5 0.636719)"/>
</clipPath>
</defs>
</svg>
