<svg width="51" height="51" viewBox="0 0 51 51" fill="none" xmlns="http://www.w3.org/2000/svg">
<g clip-path="url(#clip0_422_7958)">
<path d="M25.5 50.6367C39.3071 50.6367 50.5 39.4438 50.5 25.6367C50.5 11.8296 39.3071 0.636719 25.5 0.636719C11.6929 0.636719 0.5 11.8296 0.5 25.6367C0.5 39.4438 11.6929 50.6367 25.5 50.6367Z" fill="#D80027"/>
<path d="M40.274 21.1529H28.9875L25.4998 10.4189L22.0121 21.1529H10.7256L19.8565 27.7869L16.3687 38.5212L25.4998 31.8871L34.6309 38.5213L31.1431 27.787L40.274 21.1529ZM22.4121 26.9565L23.5915 23.3268H27.408L28.5875 26.9565V26.9566L25.4998 29.1999L22.4122 26.9566L22.4121 26.9565ZM26.7018 21.1529H24.2979L25.4998 17.4537L26.7018 21.1529ZM30.4366 25.6131L29.6937 23.3269H33.5833L30.4366 25.6131ZM21.3058 23.3269L20.5629 25.6131L17.4161 23.3269H21.3058ZM20.5038 32.8298L21.7058 29.1307L23.6506 30.5436L20.5038 32.8298ZM27.349 30.5437L29.2938 29.1308L30.4958 32.8299L27.349 30.5437Z" fill="#FFDA44"/>
</g>
<defs>
<clipPath id="clip0_422_7958">
<rect width="50" height="50" fill="white" transform="translate(0.5 0.636719)"/>
</clipPath>
</defs>
</svg>
