<svg width="51" height="51" viewBox="0 0 51 51" fill="none" xmlns="http://www.w3.org/2000/svg">
<g clip-path="url(#clip0_415_4865)">
<path d="M36.37 3.11738C33.0833 1.52813 29.396 0.636719 25.5005 0.636719C21.605 0.636719 17.9177 1.52813 14.631 3.11738L12.457 25.6367L14.631 48.1561C17.9177 49.7453 21.605 50.6367 25.5005 50.6367C29.396 50.6367 33.0833 49.7453 36.37 48.1561L38.5439 25.6367L36.37 3.11738Z" fill="#FFDA44"/>
<path d="M25.4994 16.9414L27.6576 23.584H34.6428L28.992 27.6897L31.1503 34.3326L25.4994 30.2271L19.8485 34.3326L22.0072 27.6897L16.3564 23.584H23.3411L25.4994 16.9414Z" fill="#496E2D"/>
<path d="M14.6305 3.11816C6.26816 7.16182 0.5 15.7252 0.5 25.6366C0.5 35.548 6.26816 44.1114 14.6305 48.1551V3.11816Z" fill="#496E2D"/>
<path d="M36.3691 3.11816V48.1551C44.7314 44.1114 50.4996 35.548 50.4996 25.6366C50.4996 15.7252 44.7314 7.16182 36.3691 3.11816Z" fill="#D80027"/>
</g>
<defs>
<clipPath id="clip0_415_4865">
<rect width="50" height="50" fill="white" transform="translate(0.5 0.636719)"/>
</clipPath>
</defs>
</svg>
