<svg width="51" height="51" viewBox="0 0 51 51" fill="none" xmlns="http://www.w3.org/2000/svg">
<g clip-path="url(#clip0_422_9691)">
<path d="M25.5 50.6367C39.3071 50.6367 50.5 39.4438 50.5 25.6367C50.5 11.8296 39.3071 0.636719 25.5 0.636719C11.6929 0.636719 0.5 11.8296 0.5 25.6367C0.5 39.4438 11.6929 50.6367 25.5 50.6367Z" fill="#F0F0F0"/>
<path d="M48.945 16.9414H2.05498C1.0501 19.6497 0.5 22.579 0.5 25.637C0.5 28.695 1.0501 31.6243 2.05498 34.3326H48.9451C49.95 31.6243 50.5 28.695 50.5 25.637C50.5 22.579 49.95 19.6497 48.945 16.9414Z" fill="#D80027"/>
<path d="M25.5001 0.636719C17.9229 0.636719 11.1335 4.0082 6.54883 9.33232H44.4513C39.8667 4.0082 33.0773 0.636719 25.5001 0.636719V0.636719Z" fill="#0052B4"/>
<path d="M44.4514 41.9414H6.54883C11.1335 47.2655 17.9229 50.637 25.5001 50.637C33.0773 50.637 39.8667 47.2655 44.4514 41.9414Z" fill="#0052B4"/>
</g>
<defs>
<clipPath id="clip0_422_9691">
<rect width="50" height="50" fill="white" transform="translate(0.5 0.636719)"/>
</clipPath>
</defs>
</svg>
