<svg width="51" height="51" viewBox="0 0 51 51" fill="none" xmlns="http://www.w3.org/2000/svg">
<g clip-path="url(#clip0_420_7350)">
<path d="M25.5 50.6367C39.3071 50.6367 50.5 39.4438 50.5 25.6367C50.5 11.8296 39.3071 0.636719 25.5 0.636719C11.6929 0.636719 0.5 11.8296 0.5 25.6367C0.5 39.4438 11.6929 50.6367 25.5 50.6367Z" fill="#F0F0F0"/>
<path d="M50.4997 25.6364C50.4997 14.8873 43.7153 5.72373 34.1953 2.19141V49.0815C43.7153 45.5491 50.4997 36.3855 50.4997 25.6364V25.6364Z" fill="#D80027"/>
<path d="M0.5 25.6364C0.5 36.3855 7.28447 45.5491 16.8044 49.0814V2.19141C7.28447 5.72373 0.5 14.8873 0.5 25.6364Z" fill="#0052B4"/>
</g>
<defs>
<clipPath id="clip0_420_7350">
<rect width="50" height="50" fill="white" transform="translate(0.5 0.636719)"/>
</clipPath>
</defs>
</svg>
