<svg width="51" height="51" viewBox="0 0 51 51" fill="none" xmlns="http://www.w3.org/2000/svg">
<g clip-path="url(#clip0_416_5363)">
<path d="M25.5 50.6367C39.3071 50.6367 50.5 39.4438 50.5 25.6367C50.5 11.8296 39.3071 0.636719 25.5 0.636719C11.6929 0.636719 0.5 11.8296 0.5 25.6367C0.5 39.4438 11.6929 50.6367 25.5 50.6367Z" fill="#F0F0F0"/>
<path d="M24.4131 25.637H50.5C50.5 23.3806 50.1992 21.1946 49.6388 19.1152H24.4131V25.637Z" fill="#D80027"/>
<path d="M24.4131 12.5931H46.8307C45.3003 10.0958 43.3436 7.88848 41.0621 6.07129H24.4131V12.5931Z" fill="#D80027"/>
<path d="M25.4996 50.6369C31.3833 50.6369 36.7912 48.6033 41.0617 45.2021H9.9375C14.208 48.6033 19.6159 50.6369 25.4996 50.6369Z" fill="#D80027"/>
<path d="M4.16943 38.68H46.8308C48.0594 36.6752 49.0122 34.4838 49.6389 32.1582H1.36133C1.98799 34.4838 2.94082 36.6752 4.16943 38.68V38.68Z" fill="#D80027"/>
<path d="M12.0805 4.54082H14.3587L12.2396 6.08037L13.049 8.57148L10.93 7.03193L8.81094 8.57148L9.51016 6.41943C7.64434 7.97363 6.00898 9.79453 4.66133 11.8234H5.39131L4.04238 12.8034C3.83223 13.154 3.63066 13.5102 3.4375 13.8716L4.08164 15.8541L2.87988 14.981C2.58115 15.6139 2.30791 16.261 2.0623 16.9217L2.77197 19.1061H5.39131L3.27217 20.6456L4.08164 23.1367L1.9626 21.5972L0.693262 22.5194C0.566211 23.5407 0.5 24.581 0.5 25.6367H25.5C25.5 11.8297 25.5 10.202 25.5 0.636719C20.5613 0.636719 15.9575 2.06934 12.0805 4.54082V4.54082ZM13.049 23.1367L10.93 21.5972L8.81094 23.1367L9.62041 20.6456L7.50127 19.1061H10.1206L10.93 16.6149L11.7394 19.1061H14.3587L12.2396 20.6456L13.049 23.1367ZM12.2396 13.363L13.049 15.8541L10.93 14.3146L8.81094 15.8541L9.62041 13.363L7.50127 11.8234H10.1206L10.93 9.33232L11.7394 11.8234H14.3587L12.2396 13.363ZM22.0164 23.1367L19.8974 21.5972L17.7783 23.1367L18.5878 20.6456L16.4687 19.1061H19.088L19.8974 16.6149L20.7067 19.1061H23.3261L21.2069 20.6456L22.0164 23.1367ZM21.2069 13.363L22.0164 15.8541L19.8974 14.3146L17.7783 15.8541L18.5878 13.363L16.4687 11.8234H19.088L19.8974 9.33232L20.7067 11.8234H23.3261L21.2069 13.363ZM21.2069 6.08037L22.0164 8.57148L19.8974 7.03193L17.7783 8.57148L18.5878 6.08037L16.4687 4.54082H19.088L19.8974 2.04971L20.7067 4.54082H23.3261L21.2069 6.08037Z" fill="#0052B4"/>
</g>
<defs>
<clipPath id="clip0_416_5363">
<rect width="50" height="50" fill="white" transform="translate(0.5 0.636719)"/>
</clipPath>
</defs>
</svg>
