<svg width="51" height="51" viewBox="0 0 51 51" fill="none" xmlns="http://www.w3.org/2000/svg">
<g clip-path="url(#clip0_422_9160)">
<path d="M2.05469 34.332C5.58701 43.852 14.7506 50.6364 25.4997 50.6364C36.2488 50.6364 45.4124 43.852 48.9447 34.332L25.4997 32.1582L2.05469 34.332Z" fill="#FFDA44"/>
<path d="M25.4997 0.636719C14.7506 0.636719 5.58701 7.42109 2.05469 16.9411L25.4997 19.1149L48.9447 16.941C45.4124 7.42109 36.2488 0.636719 25.4997 0.636719Z" fill="black"/>
<path d="M2.05498 16.9414C1.0501 19.6497 0.5 22.579 0.5 25.637C0.5 28.695 1.0501 31.6243 2.05498 34.3326H48.9451C49.95 31.6243 50.5 28.695 50.5 25.637C50.5 22.579 49.95 19.6497 48.945 16.9414H2.05498Z" fill="#D80027"/>
</g>
<defs>
<clipPath id="clip0_422_9160">
<rect width="50" height="50" fill="white" transform="translate(0.5 0.636719)"/>
</clipPath>
</defs>
</svg>
