<svg width="51" height="51" viewBox="0 0 51 51" fill="none" xmlns="http://www.w3.org/2000/svg">
<g clip-path="url(#clip0_422_8884)">
<path d="M25.5 50.6367C39.3071 50.6367 50.5 39.4438 50.5 25.6367C50.5 11.8296 39.3071 0.636719 25.5 0.636719C11.6929 0.636719 0.5 11.8296 0.5 25.6367C0.5 39.4438 11.6929 50.6367 25.5 50.6367Z" fill="#F0F0F0"/>
<path d="M50.4996 25.6365C50.4996 15.725 44.7315 7.16094 36.3691 3.11719V48.1558C44.7315 44.1121 50.4996 35.548 50.4996 25.6365V25.6365Z" fill="#D80027"/>
<path d="M0.5 25.6365C0.5 35.548 6.26807 44.1121 14.6305 48.1559V3.11719C6.26807 7.16094 0.5 15.725 0.5 25.6365Z" fill="#D80027"/>
<path d="M29.8481 28.8969L34.1959 26.723L32.0221 25.636V23.4621L27.6742 25.636L29.8481 21.2882H27.6742L25.5003 18.0273L23.3264 21.2882H21.1524L23.3264 25.636L18.9785 23.4621V25.636L16.8047 26.723L21.1524 28.8969L20.0655 31.0708H24.4134V34.3316H26.5872V31.0708H30.9351L29.8481 28.8969Z" fill="#D80027"/>
</g>
<defs>
<clipPath id="clip0_422_8884">
<rect width="50" height="50" fill="white" transform="translate(0.5 0.636719)"/>
</clipPath>
</defs>
</svg>
