<svg width="51" height="51" viewBox="0 0 51 51" fill="none" xmlns="http://www.w3.org/2000/svg">
<g clip-path="url(#clip0_414_4522)">
<path d="M25.5 50.6367C39.3071 50.6367 50.5 39.4438 50.5 25.6367C50.5 11.8296 39.3071 0.636719 25.5 0.636719C11.6929 0.636719 0.5 11.8296 0.5 25.6367C0.5 39.4438 11.6929 50.6367 25.5 50.6367Z" fill="#F0F0F0"/>
<path d="M50.2884 22.3759H28.761H28.7609V0.84834C27.6935 0.709375 26.6052 0.636719 25.5 0.636719C24.3948 0.636719 23.3065 0.709375 22.2392 0.84834V22.3757V22.3758H0.711621C0.572656 23.4433 0.5 24.5313 0.5 25.6367C0.5 26.7421 0.572656 27.8302 0.711621 28.8976H22.239H22.2391V50.4251C23.3065 50.5641 24.3948 50.6367 25.5 50.6367C26.6052 50.6367 27.6935 50.5642 28.7608 50.4251V28.8978V28.8977H50.2884C50.4273 27.8302 50.5 26.7421 50.5 25.6367C50.5 24.5313 50.4273 23.4433 50.2884 22.3759V22.3759Z" fill="#D80027"/>
</g>
<defs>
<clipPath id="clip0_414_4522">
<rect width="50" height="50" fill="white" transform="translate(0.5 0.636719)"/>
</clipPath>
</defs>
</svg>
