<svg width="51" height="51" viewBox="0 0 51 51" fill="none" xmlns="http://www.w3.org/2000/svg">
<g clip-path="url(#clip0_420_6253)">
<path d="M25.5 50.6367C39.3071 50.6367 50.5 39.4438 50.5 25.6367C50.5 11.8296 39.3071 0.636719 25.5 0.636719C11.6929 0.636719 0.5 11.8296 0.5 25.6367C0.5 39.4438 11.6929 50.6367 25.5 50.6367Z" fill="#F0F0F0"/>
<path d="M50.4996 25.6365C50.4996 15.725 44.7315 7.16094 36.3691 3.11719V48.1558C44.7315 44.1121 50.4996 35.548 50.4996 25.6365V25.6365Z" fill="#D80027"/>
<path d="M0.5 25.6365C0.5 35.548 6.26807 44.1121 14.6305 48.1559V3.11719C6.26807 7.16094 0.5 15.725 0.5 25.6365Z" fill="#6DA544"/>
<path d="M18.9785 25.6368C18.9785 29.2387 21.8984 32.1586 25.5003 32.1586C29.1021 32.1586 32.0221 29.2387 32.0221 25.6368V23.4629H18.9785V25.6368Z" fill="#6DA544"/>
<path d="M34.1961 21.2892H27.6743C27.6743 20.0886 26.701 19.1152 25.5004 19.1152C24.2998 19.1152 23.3265 20.0886 23.3265 21.2892H16.8047C16.8047 22.4898 17.8505 23.4631 19.051 23.4631H18.9786C18.9786 24.6638 19.9519 25.637 21.1525 25.637C21.1525 26.8377 22.1258 27.8109 23.3265 27.8109H27.6743C28.875 27.8109 29.8482 26.8377 29.8482 25.637C31.0489 25.637 32.0222 24.6638 32.0222 23.4631H31.9497C33.1504 23.4631 34.1961 22.4898 34.1961 21.2892Z" fill="#FF9811"/>
</g>
<defs>
<clipPath id="clip0_420_6253">
<rect width="50" height="50" fill="white" transform="translate(0.5 0.636719)"/>
</clipPath>
</defs>
</svg>
