<svg width="51" height="51" viewBox="0 0 51 51" fill="none" xmlns="http://www.w3.org/2000/svg">
<g clip-path="url(#clip0_420_6791)">
<path d="M25.5 50.6367C39.3071 50.6367 50.5 39.4438 50.5 25.6367C50.5 11.8296 39.3071 0.636719 25.5 0.636719C11.6929 0.636719 0.5 11.8296 0.5 25.6367C0.5 39.4438 11.6929 50.6367 25.5 50.6367Z" fill="#F0F0F0"/>
<path d="M20.0655 22.3759H50.2886C48.6906 10.1096 38.202 0.636719 25.5002 0.636719C23.6335 0.636719 21.8154 0.843066 20.0654 1.23096V22.3759H20.0655Z" fill="#D80027"/>
<path d="M13.5437 22.3761V3.67676C6.6792 7.42227 1.76494 14.2925 0.711914 22.3762H13.5437V22.3761Z" fill="#D80027"/>
<path d="M13.5437 28.8975H0.711914C1.76494 36.9812 6.6792 43.8514 13.5437 47.5968L13.5437 28.8975Z" fill="#D80027"/>
<path d="M20.0654 28.8976V50.0424C21.8154 50.4303 23.6335 50.6366 25.5002 50.6366C38.202 50.6366 48.6906 41.1638 50.2886 28.8975H20.0654V28.8976Z" fill="#D80027"/>
</g>
<defs>
<clipPath id="clip0_420_6791">
<rect width="50" height="50" fill="white" transform="translate(0.5 0.636719)"/>
</clipPath>
</defs>
</svg>
