<svg width="50" height="51" viewBox="0 0 50 51" fill="none" xmlns="http://www.w3.org/2000/svg">
<g clip-path="url(#clip0_418_1105)">
<path d="M0 25.4548C0 36.2038 6.78438 45.3674 16.3042 48.8997L18.4782 25.4547L16.3042 2.00977C6.78438 5.54219 0 14.7057 0 25.4548Z" fill="#6DA544"/>
<path d="M50.0005 25.4551C50.0005 11.648 38.8075 0.455078 25.0005 0.455078C21.9425 0.455078 19.0131 1.00518 16.3047 2.01006V48.9001C19.0131 49.9051 21.9425 50.4551 25.0005 50.4551C38.8075 50.4551 50.0005 39.2621 50.0005 25.4551Z" fill="#D80027"/>
<path d="M16.304 34.151C21.1065 34.151 24.9996 30.2578 24.9996 25.4554C24.9996 20.6529 21.1065 16.7598 16.304 16.7598C11.5016 16.7598 7.6084 20.6529 7.6084 25.4554C7.6084 30.2578 11.5016 34.151 16.304 34.151Z" fill="#FFDA44"/>
<path d="M11.4131 21.1074V26.5422C11.4131 29.2436 13.6029 31.4335 16.3044 31.4335C19.0059 31.4335 21.1957 29.2437 21.1957 26.5422V21.1074H11.4131Z" fill="#D80027"/>
<path d="M16.3043 28.1725C15.4053 28.1725 14.6738 27.441 14.6738 26.542V24.3682H17.9347V26.5421C17.9347 27.441 17.2032 28.1725 16.3043 28.1725Z" fill="#F0F0F0"/>
</g>
<defs>
<clipPath id="clip0_418_1105">
<rect width="50" height="50" fill="white" transform="translate(0 0.455078)"/>
</clipPath>
</defs>
</svg>
