<svg width="51" height="51" viewBox="0 0 51 51" fill="none" xmlns="http://www.w3.org/2000/svg">
<g clip-path="url(#clip0_422_8622)">
<path d="M34.196 2.1917C31.4877 1.18682 28.5584 0.636719 25.5004 0.636719C22.4424 0.636719 19.5131 1.18682 16.8048 2.1917L14.6309 25.6367L16.8048 49.0817C19.5131 50.0867 22.4424 50.6367 25.5004 50.6367C28.5584 50.6367 31.4877 50.0867 34.196 49.0817L36.3699 25.6367L34.196 2.1917Z" fill="#FFDA44"/>
<path d="M50.4997 25.6363C50.4997 14.8873 43.7153 5.72363 34.1953 2.19141V49.0815C43.7153 45.549 50.4997 36.3855 50.4997 25.6363V25.6363Z" fill="#D80027"/>
<path d="M0.5 25.6363C0.5 36.3855 7.28437 45.549 16.8044 49.0814V2.19141C7.28437 5.72363 0.5 14.8873 0.5 25.6363V25.6363Z" fill="black"/>
</g>
<defs>
<clipPath id="clip0_422_8622">
<rect width="50" height="50" fill="white" transform="translate(0.5 0.636719)"/>
</clipPath>
</defs>
</svg>
