<svg width="51" height="51" viewBox="0 0 51 51" fill="none" xmlns="http://www.w3.org/2000/svg">
<g clip-path="url(#clip0_420_7612)">
<path d="M50.5 25.6367C50.5 39.4438 39.307 50.6367 25.5 50.6367C11.693 50.6367 0.5 39.4438 0.5 25.6367C0.5 25.6426 25.5 0.639551 25.5 0.636719C39.307 0.636719 50.5 11.8297 50.5 25.6367Z" fill="#0052B4"/>
<path d="M25.4336 25.6372H25.5005C25.5005 25.6146 25.5005 25.5929 25.5005 25.5703C25.4782 25.5927 25.456 25.6149 25.4336 25.6372Z" fill="#F0F0F0"/>
<path d="M25.5 13.6802C25.5 9.28125 25.5 6.39873 25.5 0.636719H25.4958C11.6906 0.638965 0.5 11.8309 0.5 25.6366H13.5435V18.2917L20.8884 25.6366H25.4332C25.4556 25.6144 25.4778 25.5921 25.5001 25.5697C25.5001 23.8855 25.5001 22.3826 25.5001 21.0252L18.1551 13.6802H25.5Z" fill="#F0F0F0"/>
<path d="M13.1479 3.89746C9.23779 6.12393 5.98721 9.37451 3.76074 13.2846V25.6366H10.2825V10.4193V10.4192H25.4999C25.4999 8.36231 25.4999 6.40273 25.4999 3.89746H13.1479Z" fill="#D80027"/>
<path d="M25.4994 22.5627L16.6173 13.6807H13.543C13.543 13.6806 13.543 13.6807 13.543 13.6807L25.4993 25.6371H25.4994C25.4994 25.6371 25.4994 23.5174 25.4994 22.5627Z" fill="#D80027"/>
<path d="M15.5774 29.9844L16.9495 32.8533L20.0479 32.1372L18.6604 34.9987L21.152 36.9746L18.0497 37.6738L18.0584 40.8539L15.5774 38.8644L13.0966 40.8539L13.1053 37.6738L10.0029 36.9746L12.4946 34.9987L11.1069 32.1372L14.2055 32.8533L15.5774 29.9844Z" fill="#F0F0F0"/>
<path d="M37.9298 35.4189L38.6158 36.8534L40.165 36.4953L39.4712 37.9261L40.7171 38.9141L39.1659 39.2637L39.1702 40.8537L37.9298 39.8589L36.6894 40.8537L36.6937 39.2637L35.1426 38.9141L36.3884 37.9261L35.6946 36.4953L37.2438 36.8534L37.9298 35.4189Z" fill="#F0F0F0"/>
<path d="M31.548 20.2012L32.234 21.6357L33.7832 21.2775L33.0895 22.7083L34.3353 23.6963L32.7842 24.0459L32.7884 25.6359L31.548 24.6411L30.3076 25.6359L30.3118 24.0459L28.7607 23.6963L30.0065 22.7083L29.3128 21.2775L30.862 21.6357L31.548 20.2012Z" fill="#F0F0F0"/>
<path d="M37.9298 11.5059L38.6158 12.9404L40.165 12.5823L39.4713 14.0131L40.717 15.001L39.1659 15.3507L39.1702 16.9407L37.9298 15.9459L36.6894 16.9407L36.6937 15.3507L35.1426 15.001L36.3883 14.0131L35.6946 12.5823L37.2438 12.9404L37.9298 11.5059Z" fill="#F0F0F0"/>
<path d="M43.5041 18.0273L44.19 19.4619L45.7393 19.1037L45.0455 20.5345L46.2913 21.5225L44.7401 21.8722L44.7444 23.4621L43.5041 22.4674L42.2637 23.4621L42.2679 21.8722L40.7168 21.5225L41.9626 20.5345L41.2688 19.1037L42.818 19.4619L43.5041 18.0273Z" fill="#F0F0F0"/>
<path d="M39.5183 25.6367L40.0578 27.2975H41.8041L40.3913 28.3239L40.9311 29.9846L39.5183 28.9582L38.1056 29.9846L38.6451 28.3239L37.2324 27.2975H38.9786L39.5183 25.6367Z" fill="#F0F0F0"/>
</g>
<defs>
<clipPath id="clip0_420_7612">
<rect width="50" height="50" fill="white" transform="translate(0.5 0.636719)"/>
</clipPath>
</defs>
</svg>
