<svg width="51" height="51" viewBox="0 0 51 51" fill="none" xmlns="http://www.w3.org/2000/svg">
<g clip-path="url(#clip0_420_5905)">
<path d="M25.5 50.6367C39.3071 50.6367 50.5 39.4438 50.5 25.6367C50.5 11.8296 39.3071 0.636719 25.5 0.636719C11.6929 0.636719 0.5 11.8296 0.5 25.6367C0.5 39.4438 11.6929 50.6367 25.5 50.6367Z" fill="#6DA544"/>
<path d="M14.6299 30.5283C14.6299 32.3292 16.0898 33.7892 17.8907 33.7892H27.6733C27.6733 35.2899 28.8899 36.5065 30.3907 36.5065H33.6516C35.1523 36.5065 36.3689 35.2899 36.3689 33.7892V30.5283H14.6299Z" fill="#F0F0F0"/>
<path d="M36.6407 14.7676V22.3763C36.6407 23.575 35.6655 24.5502 34.4668 24.5502V27.811C37.4636 27.811 39.9016 25.3729 39.9016 22.3763V14.7676H36.6407Z" fill="#F0F0F0"/>
<path d="M13.2716 22.3763C13.2716 23.575 12.2964 24.5502 11.0977 24.5502V27.811C14.0944 27.811 16.5324 25.3729 16.5324 22.3763V14.7676H13.2716V22.3763Z" fill="#F0F0F0"/>
<path d="M31.75 14.7676H35.0108V22.3763H31.75V14.7676Z" fill="#F0F0F0"/>
<path d="M26.8587 19.1154C26.8587 19.4151 26.6148 19.6589 26.3152 19.6589C26.0156 19.6589 25.7718 19.415 25.7718 19.1154V14.7676H22.5109V19.1154C22.5109 19.4151 22.2671 19.6589 21.9675 19.6589C21.6679 19.6589 21.424 19.415 21.424 19.1154V14.7676H18.1631V19.1154C18.1631 21.2132 19.8697 22.9198 21.9675 22.9198C22.7754 22.9198 23.5246 22.6659 24.1414 22.2347C24.7581 22.6658 25.5074 22.9198 26.3153 22.9198C26.478 22.9198 26.638 22.9084 26.7953 22.8884C26.5643 23.8404 25.7068 24.5502 24.6849 24.5502V27.811C27.6816 27.811 30.1196 25.3729 30.1196 22.3763V19.1154V14.7676H26.8588V19.1154H26.8587Z" fill="#F0F0F0"/>
<path d="M18.1631 24.5498H23.0544V27.8106H18.1631V24.5498Z" fill="#F0F0F0"/>
</g>
<defs>
<clipPath id="clip0_420_5905">
<rect width="50" height="50" fill="white" transform="translate(0.5 0.636719)"/>
</clipPath>
</defs>
</svg>
