<svg width="51" height="51" viewBox="0 0 51 51" fill="none" xmlns="http://www.w3.org/2000/svg">
<g clip-path="url(#clip0_420_7074)">
<path d="M25.5 50.6367C39.3071 50.6367 50.5 39.4438 50.5 25.6367C50.5 11.8296 39.3071 0.636719 25.5 0.636719C11.6929 0.636719 0.5 11.8296 0.5 25.6367C0.5 39.4438 11.6929 50.6367 25.5 50.6367Z" fill="#D80027"/>
<path d="M25.4995 37.5928C32.1029 37.5928 37.4561 32.2396 37.4561 25.6362C37.4561 19.0328 32.1029 13.6797 25.4995 13.6797C18.8961 13.6797 13.543 19.0328 13.543 25.6362C13.543 32.2396 18.8961 37.5928 25.4995 37.5928Z" fill="#F0F0F0"/>
<path d="M26.9736 21.0654L29.0248 23.8921L32.3468 22.8149L30.2924 25.6392L32.3434 28.4657L29.0225 27.3845L26.9681 30.2087L26.9702 26.7164L23.6494 25.6352L26.9715 24.558L26.9736 21.0654Z" fill="#D80027"/>
<path d="M28.2177 32.7023C24.3157 32.7023 21.1524 29.5391 21.1524 25.6371C21.1524 21.7352 24.3157 18.5719 28.2177 18.5719C29.4343 18.5719 30.5791 18.8795 31.5785 19.4211C30.0106 17.8878 27.8666 16.9414 25.5003 16.9414C20.6979 16.9414 16.8047 20.8346 16.8047 25.637C16.8047 30.4395 20.6979 34.3326 25.5003 34.3326C27.8666 34.3326 30.0107 33.3862 31.5785 31.8529C30.5791 32.3947 29.4343 32.7023 28.2177 32.7023Z" fill="#D80027"/>
</g>
<defs>
<clipPath id="clip0_420_7074">
<rect width="50" height="50" fill="white" transform="translate(0.5 0.636719)"/>
</clipPath>
</defs>
</svg>
