<svg width="273" height="66" viewBox="0 0 273 66" fill="none" xmlns="http://www.w3.org/2000/svg">
<path fill-rule="evenodd" clip-rule="evenodd" d="M93.5126 9.2816V7.20316L87.767 9.33873H87.7561V11.4716H87.767L93.5126 13.6072V11.526L90.5663 10.3997L93.5126 9.27888V9.2816Z" fill="#F7DD43"/>
<path fill-rule="evenodd" clip-rule="evenodd" d="M126.792 13.5037V11.4253L129.736 10.3072L126.792 9.18906V7.11062L132.53 9.24619H132.543V11.3818H132.53L126.792 13.5065V13.5037ZM124.327 4.16978L120.954 15H122.956L126.33 4.16978H124.327Z" fill="#F7DD43"/>
<path fill-rule="evenodd" clip-rule="evenodd" d="M101.954 6.91747C102.526 7.54317 102.825 8.3702 102.79 9.21627V13.8302H100.787V9.64066C100.812 9.17274 100.662 8.7157 100.368 8.35116C100.091 8.02742 99.68 7.84787 99.2529 7.86691C97.9988 7.86691 97.3703 8.73746 97.3703 10.4758V13.8302H95.3681V6.25639H97.3703V6.93923C98.0069 6.32168 98.8693 5.99251 99.7562 6.03059C100.583 5.99523 101.383 6.31896 101.954 6.91747Z" fill="#F7DD43"/>
<path fill-rule="evenodd" clip-rule="evenodd" d="M105.341 3V13.8302H107.344V3H105.341Z" fill="#F7DD43"/>
<path fill-rule="evenodd" clip-rule="evenodd" d="M118.666 13.8302H116.996L115.358 9.36861L113.704 13.8302H112.034L109.226 6.24278H111.367L112.945 10.7805L114.572 6.24278H116.136L117.763 10.7941L119.341 6.24278H121.482L118.672 13.8302H118.666Z" fill="#F7DD43"/>
<path d="M142.08 17.9981C140.153 17.9981 138.129 17.6331 136.543 16.754V1.24411C138.105 0.389878 140.128 2.85548e-05 142.08 2.85548e-05C144.031 2.85548e-05 146.007 0.365035 147.566 1.24411V7.19505H143.639V3.14558C143.176 2.95066 142.615 2.87804 142.055 2.87804C141.495 2.87804 140.981 2.95066 140.493 3.14558V14.8525C140.956 15.0475 141.493 15.1201 142.055 15.1201C142.617 15.1201 143.152 15.0475 143.639 14.8525V10.805H147.566V16.7559C146.03 17.6101 144.006 17.9752 142.08 18V17.9981Z" fill="#F7DD43"/>
<path d="M154.931 17.9981C152.858 17.9981 150.859 17.5585 149.273 16.6565V1.3167C150.834 0.439536 152.835 0 154.931 0C157.028 0 158.979 0.414693 160.54 1.3167V16.6565C159.004 17.5585 156.98 17.9732 154.931 17.9981ZM156.615 3.19524C156.152 3.00031 155.591 2.90285 154.908 2.90285C154.226 2.90285 153.689 3.00031 153.225 3.19524V14.7799C153.687 14.9997 154.249 15.0971 154.908 15.0971C155.568 15.0971 156.128 14.9997 156.615 14.7799V3.19524Z" fill="#F7DD43"/>
<path d="M167.393 11.4127H166.344V17.7783H162.369V0.219779H167.393C169.784 0.219779 171.588 0.707092 173.002 1.70656V9.92589C171.613 10.9024 169.782 11.4127 167.393 11.4127ZM169.052 3.24303C168.687 2.97548 168.198 2.85318 167.368 2.85318H166.294V8.77927H167.368C168.173 8.77927 168.66 8.65697 169.052 8.41427V3.24303Z" fill="#F7DD43"/>
<path d="M181.317 17.7783V11.4127H178.391V17.7783H174.441V1.29185C175.88 0.437625 177.904 0 179.855 0C181.806 0 183.805 0.439537 185.244 1.29185V17.7783H181.317ZM181.317 3.04809C180.902 2.85316 180.39 2.7557 179.853 2.7557C179.316 2.7557 178.804 2.85316 178.389 3.04809V8.63211H181.315V3.04809H181.317Z" fill="#F7DD43"/>
<path d="M59.7129 47.9248H64.0928C64.0049 49.3604 63.6094 50.6348 62.9062 51.748C62.2129 52.8613 61.2412 53.7305 59.9912 54.3555C58.751 54.9805 57.2568 55.293 55.5088 55.293C54.1416 55.293 52.916 55.0586 51.832 54.5898C50.748 54.1113 49.8203 53.4277 49.0488 52.5391C48.2871 51.6504 47.7061 50.5762 47.3057 49.3164C46.9053 48.0566 46.7051 46.6455 46.7051 45.083V43.6035C46.7051 42.041 46.9102 40.6299 47.3203 39.3701C47.7402 38.1006 48.3359 37.0215 49.1074 36.1328C49.8887 35.2441 50.8213 34.5605 51.9053 34.082C52.9893 33.6035 54.2002 33.3643 55.5381 33.3643C57.3154 33.3643 58.8145 33.6865 60.0352 34.3311C61.2656 34.9756 62.2178 35.8643 62.8916 36.9971C63.5752 38.1299 63.9854 39.4189 64.1221 40.8643H59.7275C59.6787 40.0049 59.5078 39.2773 59.2148 38.6816C58.9219 38.0762 58.4775 37.6221 57.8818 37.3193C57.2959 37.0068 56.5146 36.8506 55.5381 36.8506C54.8057 36.8506 54.166 36.9873 53.6191 37.2607C53.0723 37.5342 52.6133 37.9492 52.2422 38.5059C51.8711 39.0625 51.5928 39.7656 51.4072 40.6152C51.2314 41.4551 51.1436 42.4414 51.1436 43.5742V45.083C51.1436 46.1865 51.2266 47.1582 51.3926 47.998C51.5586 48.8281 51.8125 49.5312 52.1543 50.1074C52.5059 50.6738 52.9551 51.1035 53.502 51.3965C54.0586 51.6797 54.7275 51.8213 55.5088 51.8213C56.4268 51.8213 57.1836 51.6748 57.7793 51.3818C58.375 51.0889 58.8291 50.6543 59.1416 50.0781C59.4639 49.502 59.6543 48.7842 59.7129 47.9248ZM75.6504 37.3193L69.8496 55H65.1768L73.1016 33.6719H76.0752L75.6504 37.3193ZM80.4697 55L74.6543 37.3193L74.1855 33.6719H77.1885L85.1572 55H80.4697ZM80.2061 47.0605V50.5029H68.9414V47.0605H80.2061ZM100.846 51.5723V55H90.1084V51.5723H100.846ZM91.5293 33.6719V55H87.1348V33.6719H91.5293ZM117.677 51.5723V55H106.324V51.5723H117.677ZM107.76 33.6719V55H103.365V33.6719H107.76ZM116.197 42.3584V45.6982H106.324V42.3584H116.197ZM117.662 33.6719V37.1143H106.324V33.6719H117.662ZM137.599 33.6719V55H133.204L124.635 40.7031V55H120.24V33.6719H124.635L133.219 47.9834V33.6719H137.599ZM147.97 55H143.326L143.355 51.5723H147.97C149.122 51.5723 150.094 51.3135 150.885 50.7959C151.676 50.2686 152.271 49.502 152.672 48.4961C153.082 47.4902 153.287 46.2744 153.287 44.8486V43.8086C153.287 42.7148 153.17 41.7529 152.936 40.9229C152.711 40.0928 152.374 39.3945 151.925 38.8281C151.476 38.2617 150.924 37.8369 150.27 37.5537C149.615 37.2607 148.863 37.1143 148.014 37.1143H143.238V33.6719H148.014C149.439 33.6719 150.743 33.916 151.925 34.4043C153.116 34.8828 154.146 35.5713 155.016 36.4697C155.885 37.3682 156.554 38.4424 157.022 39.6924C157.501 40.9326 157.74 42.3145 157.74 43.8379V44.8486C157.74 46.3623 157.501 47.7441 157.022 48.9941C156.554 50.2441 155.885 51.3184 155.016 52.2168C154.156 53.1055 153.126 53.7939 151.925 54.2822C150.733 54.7607 149.415 55 147.97 55ZM145.816 33.6719V55H141.422V33.6719H145.816ZM169.283 37.3193L163.482 55H158.81L166.734 33.6719H169.708L169.283 37.3193ZM174.103 55L168.287 37.3193L167.818 33.6719H170.821L178.79 55H174.103ZM173.839 47.0605V50.5029H162.574V47.0605H173.839ZM166.808 32.4707L169.679 27.959H174.264L170.235 32.4707H166.808ZM180.768 33.6719H188.722C190.353 33.6719 191.754 33.916 192.926 34.4043C194.107 34.8926 195.016 35.6152 195.65 36.5723C196.285 37.5293 196.603 38.7061 196.603 40.1025C196.603 41.2451 196.407 42.2266 196.017 43.0469C195.636 43.8574 195.094 44.5361 194.391 45.083C193.697 45.6201 192.882 46.0498 191.944 46.3721L190.553 47.1045H183.639L183.609 43.6768H188.751C189.522 43.6768 190.162 43.54 190.67 43.2666C191.178 42.9932 191.559 42.6123 191.812 42.124C192.076 41.6357 192.208 41.0693 192.208 40.4248C192.208 39.7412 192.081 39.1504 191.827 38.6523C191.573 38.1543 191.188 37.7734 190.67 37.5098C190.152 37.2461 189.503 37.1143 188.722 37.1143H185.162V55H180.768V33.6719ZM192.691 55L187.828 45.4932L192.472 45.4639L197.394 54.7949V55H192.691ZM204.659 33.6719V55H200.279V33.6719H204.659ZM226.295 43.8379V44.8486C226.295 46.4697 226.075 47.9248 225.636 49.2139C225.196 50.5029 224.576 51.6016 223.775 52.5098C222.975 53.4082 222.018 54.0967 220.904 54.5752C219.801 55.0537 218.575 55.293 217.228 55.293C215.89 55.293 214.664 55.0537 213.551 54.5752C212.447 54.0967 211.49 53.4082 210.68 52.5098C209.869 51.6016 209.239 50.5029 208.79 49.2139C208.351 47.9248 208.131 46.4697 208.131 44.8486V43.8379C208.131 42.207 208.351 40.752 208.79 39.4727C209.229 38.1836 209.85 37.085 210.65 36.1768C211.461 35.2686 212.418 34.5752 213.521 34.0967C214.635 33.6182 215.86 33.3789 217.198 33.3789C218.546 33.3789 219.771 33.6182 220.875 34.0967C221.988 34.5752 222.945 35.2686 223.746 36.1768C224.557 37.085 225.182 38.1836 225.621 39.4727C226.07 40.752 226.295 42.207 226.295 43.8379ZM221.856 44.8486V43.8086C221.856 42.6758 221.754 41.6797 221.549 40.8203C221.344 39.9609 221.041 39.2383 220.641 38.6523C220.24 38.0664 219.752 37.627 219.176 37.334C218.6 37.0312 217.94 36.8799 217.198 36.8799C216.456 36.8799 215.797 37.0312 215.221 37.334C214.654 37.627 214.171 38.0664 213.771 38.6523C213.38 39.2383 213.082 39.9609 212.877 40.8203C212.672 41.6797 212.569 42.6758 212.569 43.8086V44.8486C212.569 45.9717 212.672 46.9678 212.877 47.8369C213.082 48.6963 213.385 49.4238 213.785 50.0195C214.186 50.6055 214.674 51.0498 215.25 51.3525C215.826 51.6553 216.485 51.8066 217.228 51.8066C217.97 51.8066 218.629 51.6553 219.205 51.3525C219.781 51.0498 220.265 50.6055 220.655 50.0195C221.046 49.4238 221.344 48.6963 221.549 47.8369C221.754 46.9678 221.856 45.9717 221.856 44.8486Z" fill="url(#paint0_linear_122_239)"/>
<defs>
<linearGradient id="paint0_linear_122_239" x1="136.5" y1="26" x2="136.5" y2="64" gradientUnits="userSpaceOnUse">
<stop stop-color="white"/>
<stop offset="1" stop-color="#D9D9D9" stop-opacity="0.8"/>
</linearGradient>
</defs>
</svg>
